<mxfile host="app.diagrams.net" modified="2023-08-29T09:50:14.755Z" agent="Mozilla/5.0 (X11; Linux x86_64) AppleWebKit/537.36 (KHTML, like Gecko) Chrome/115.0.0.0 Safari/537.36" version="21.6.9" etag="191-1qqa8uWKOHcu1_ST" type="github">
  <diagram name="PÃ¡gina-1" id="_-31sbx9o5oEE8R64CiK">
    <mxGraphModel>
      <root>
        <mxCell id="0" />
        <mxCell id="1" parent="0" />
      </root>
    </mxGraphModel>
  </diagram>
</mxfile>
